<svg width="166" height="100" viewBox="0 0 166 100" fill="none" xmlns="http://www.w3.org/2000/svg">
<g clip-path="url(#clip0_81_206)">
<path d="M166 3.27077H0V9.81309H166V3.27077Z" fill="#1A1818"/>
<path d="M32.8796 60.5387L29.2767 62.6213V77.2838L17.5679 84.1632V28.6751L31.0819 20.8006L44.5891 28.6751V50.4854L36.4825 55.1952L44.5891 59.9027V77.2807L32.8811 84.1601L32.8796 60.5387ZM29.2767 35.463V49.8555L32.8796 47.7728V33.3819L29.2767 35.463Z" fill="#1A1818"/>
<path d="M69.4902 28.6751L82.9975 20.8006L96.5047 28.6751V68.4117L69.4902 84.1609V28.6751ZM84.802 61.6193V33.3819L81.199 35.463V63.7042L84.802 61.6193Z" fill="#1A1818"/>
<path d="M121.413 28.6751L134.924 20.8006L148.431 28.6751V37.6356L136.723 44.515V33.3811L133.12 35.4622V50.7599L148.43 41.8894V55.4636L133.121 64.3372V77.2815L121.413 84.1594V28.6751Z" fill="#1A1818"/>
<path d="M32.8796 56.4199L29.2767 58.5026V73.162L17.5679 80.0413V24.5594L31.0819 16.6848L44.5891 24.5594V46.3697L36.4825 51.0795L44.5891 55.787V73.162L32.8811 80.0413L32.8796 56.4199ZM29.2767 31.3473V45.7398L32.8796 43.6571V29.2662L29.2767 31.3473Z" fill="#FFCC00"/>
<path d="M69.4902 24.5579L82.9997 16.6833L96.507 24.5579V64.2945L69.4902 80.0436V24.5579ZM84.802 57.502V29.2646L81.199 31.3458V59.587L84.802 57.502Z" fill="#FFCC00"/>
<path d="M121.413 24.5594L134.924 16.6848L148.431 24.5594V33.5199L136.723 40.3993V29.2654L133.12 31.3465V46.6442L148.432 37.7775V51.3517L133.121 60.2215V73.1658L121.413 80.0436V24.5594Z" fill="#FFCC00"/>
<path d="M64.0659 48.3639H50.1997V55.0808H64.0659V48.3639Z" fill="#1A1818"/>
<path d="M57.1347 38.9732L50.1997 55.0816L57.1347 71.1922L64.0659 55.0816L57.1347 38.9732Z" fill="#1A1818"/>
<path d="M108.869 38.9732L101.934 55.0816L108.869 71.1922L115.8 55.0816L108.869 38.9732Z" fill="#1A1818"/>
<path d="M166 0H0V6.54231H166V0Z" fill="#FFCC00"/>
<path d="M166 93.4585H0V100.001H166V93.4585Z" fill="#1A1818"/>
<path d="M166 90.1862H0V96.7285H166V90.1862Z" fill="#FFCC00"/>
<path d="M57.1347 32.254L50.1997 48.3638L57.1347 64.4745L64.0659 48.3638L57.1347 32.254Z" fill="#FFCC00"/>
<path d="M115.8 48.3654H101.934V55.0823H115.8V48.3654Z" fill="#1A1818"/>
<path d="M108.869 32.254L101.934 48.3638L108.869 64.4745L115.8 48.3638L108.869 32.254Z" fill="#FFCC00"/>
</g>
<defs>
<clipPath id="clip0_81_206">
<rect width="166" height="100" fill="white"/>
</clipPath>
</defs>
</svg>
