<svg width="53" height="54" viewBox="0 0 53 54" fill="none" xmlns="http://www.w3.org/2000/svg">
<g clip-path="url(#clip0_252_20)">
<path d="M34.0744 25.675C33.9551 27.0729 32.7891 28.1638 31.3714 28.1638C29.8741 28.1638 28.6573 26.9492 28.6573 25.4497C28.6573 23.9503 29.8719 22.7357 31.3691 22.7357C32.8774 22.7997 34.0744 24.0386 34.0744 25.5557C34.0744 25.5977 34.0744 25.6375 34.0721 25.6794V25.6728L34.0744 25.675ZM21.6989 22.7379C20.1795 22.8726 18.9981 24.138 18.9981 25.6794C18.9981 27.2208 20.1795 28.4862 21.6878 28.6209H21.6989C23.2071 28.5569 24.4041 27.318 24.4041 25.8009C24.4041 25.7589 24.4041 25.7192 24.4019 25.6772V25.6838C24.4041 25.6397 24.4063 25.5889 24.4063 25.5359C24.4063 24.0232 23.2116 22.7909 21.7143 22.7335H21.7099L21.6989 22.7379ZM49.6873 5.959V53.5C43.0115 47.5993 45.1447 49.5537 37.3913 42.3435L38.7958 47.246H8.74256C5.74143 47.2372 3.31006 44.8036 3.31006 41.8002C3.31006 41.7958 3.31006 41.7914 3.31006 41.787V5.959C3.31006 5.95458 3.31006 5.95017 3.31006 5.94575C3.31006 2.94242 5.74143 0.508833 8.74035 0.5H44.2526C47.2537 0.508833 49.6851 2.94242 49.6851 5.94575L49.6873 5.959ZM42.1348 31.081C42.042 25.4299 40.6419 20.1277 38.226 15.4327L38.3188 15.6315C36.2783 14.0172 33.7078 12.9925 30.9032 12.8512L30.8723 12.849L30.5013 13.273C33.0408 13.962 35.2492 15.1214 37.1307 16.6628L37.0998 16.6385C34.0103 14.9403 30.329 13.9399 26.4136 13.9399C23.1166 13.9399 19.9852 14.6488 17.1629 15.923L17.3043 15.8656C16.3238 16.3161 15.7408 16.6385 15.7408 16.6385C17.6929 15.0441 20.0294 13.8427 22.5866 13.1935L22.7103 13.167L22.4453 12.849C19.6098 12.9925 17.0393 14.0172 14.9723 15.6514L14.9988 15.6315C12.6756 20.1277 11.2755 25.4299 11.1828 31.0501V31.081C12.9472 33.5345 15.7938 35.1134 19.0069 35.1134C19.0974 35.1134 19.188 35.1112 19.2785 35.109H19.2653C19.2653 35.109 20.2458 33.9165 21.0408 32.9095C19.1284 32.417 17.5251 31.304 16.4187 29.8046L16.4033 29.7825C16.7919 30.0563 17.4368 30.4097 17.4853 30.445C20.1552 31.929 23.3419 32.8013 26.7339 32.8013C29.364 32.8013 31.8704 32.2757 34.1538 31.3261L34.0258 31.3725C35.1918 30.9264 36.1944 30.4008 37.1263 29.7759L37.0711 29.8112C35.9095 31.3637 34.251 32.4877 32.3364 32.9537L32.279 32.9647C33.074 33.9717 34.028 35.1112 34.028 35.1112C34.1009 35.1134 34.187 35.1134 34.2731 35.1134C37.4995 35.1134 40.3571 33.5367 42.1171 31.1097L42.1348 31.081Z" fill="#FFCC00"/>
</g>
<defs>
<clipPath id="clip0_252_20">
<rect width="53" height="53" fill="white" transform="translate(0 0.5)"/>
</clipPath>
</defs>
</svg>
