<svg width="55" height="54" viewBox="0 0 55 54" fill="none" xmlns="http://www.w3.org/2000/svg">
<path d="M31.2443 20.2256C31.2443 17.4886 33.5029 15.2696 36.287 15.2696C39.0711 15.2696 41.3298 17.4886 41.3298 20.2238C41.3298 22.9608 39.0729 25.1781 36.287 25.1781C36.287 25.1781 36.287 25.1781 36.2853 25.1781C33.5012 25.1781 31.2443 22.9608 31.2443 20.2256C31.2443 20.2256 31.2425 20.2256 31.2425 20.2238L31.2443 20.2256ZM42.981 20.2361C42.981 16.5943 39.976 13.6421 36.2692 13.6421C32.5624 13.6421 29.5575 16.5943 29.5575 20.2361C29.5575 23.8778 32.5624 26.8301 36.2692 26.8301C39.9742 26.8248 42.9756 23.8743 42.981 20.2361ZM17.5732 40.5798L14.2939 39.2463C15.2273 41.1328 17.1635 42.4103 19.4026 42.4103C21.7485 42.4103 23.7631 41.0086 24.6216 39.0101L24.6359 38.9733C24.912 38.3398 25.0741 37.6013 25.0741 36.8278C25.0741 33.7531 22.5376 31.2611 19.4079 31.2611C18.6865 31.2611 17.9972 31.3941 17.363 31.6338L17.4022 31.6216L20.7919 32.9988C22.3096 33.6358 23.3552 35.0918 23.3552 36.7858C23.3552 39.0538 21.4831 40.8931 19.1746 40.8931C18.5974 40.8931 18.0488 40.7776 17.5483 40.5711L17.575 40.5816L17.5732 40.5798ZM27.4538 0.756836C13.4585 0.758586 1.98016 11.3373 0.845504 24.7983L0.838379 24.8928L15.1561 30.7063C16.3459 29.8978 17.819 29.4166 19.4079 29.4166C19.4097 29.4166 19.4115 29.4166 19.4115 29.4166C19.5522 29.4166 19.6893 29.4253 19.8301 29.4306L26.198 20.3726V20.2431C26.2034 14.7831 30.7099 10.3591 36.2674 10.3591C41.8285 10.3591 46.3368 14.7883 46.3368 20.2518C46.3368 25.7153 41.8285 30.1446 36.2674 30.1446H36.0341L26.9604 36.5111C26.9604 36.6248 26.9693 36.7403 26.9693 36.8593C26.9693 36.8611 26.9693 36.8628 26.9693 36.8646C26.9693 40.9631 23.5867 44.2863 19.415 44.2863C15.7688 44.2863 12.7247 41.7471 12.0175 38.3713L12.0086 38.3241L1.7575 34.1538C5.03679 45.2576 15.2968 53.2376 27.452 53.2376C42.2026 53.2376 54.1601 41.4898 54.1601 26.9981C54.1601 12.5063 42.2026 0.758586 27.452 0.758586L27.4538 0.756836Z" fill="#FFCC00"/>
</svg>
