<svg width="75" height="54" viewBox="0 0 75 54" fill="none" xmlns="http://www.w3.org/2000/svg">
<path fill-rule="evenodd" clip-rule="evenodd" d="M29.9566 36.6979V15.6536C37.4274 19.169 43.2135 22.5649 50.0567 26.2261C44.4125 29.3563 37.4274 32.8684 29.9566 36.6979ZM71.5913 5.18731C70.3026 3.48946 68.1062 2.16783 65.7678 1.73028C58.8947 0.425096 16.0162 0.421383 9.14682 1.73028C7.27166 2.08181 5.60189 2.9315 4.1675 4.25165C-1.87636 9.86127 0.0174982 39.9439 1.4743 44.8168C2.0869 46.9261 2.87884 48.4472 3.87619 49.4457C5.16116 50.7658 6.9205 51.6748 8.94134 52.0825C14.6005 53.253 43.7551 53.9075 65.6482 52.2582C67.6654 51.9067 69.4508 50.9685 70.8591 49.5922C76.4472 44.005 76.0663 12.233 71.5913 5.18731Z" fill="#FFCC00"/>
</svg>
